<svg width="217" height="71" viewBox="0 0 217 71" fill="none" xmlns="http://www.w3.org/2000/svg">
<path fill-rule="evenodd" clip-rule="evenodd" d="M3.98415 0.16727C3.13013 0.612313 2.35698 1.75465 2.01751 3.07286C1.6478 4.50834 1.72716 4.91667 3.86649 12.5805C4.92955 16.389 5.94108 20.0986 6.1142 20.824C6.49952 22.4379 6.69971 24.0307 6.98482 27.7487C7.34907 32.4991 7.70077 34.6037 8.56833 37.2259C10.2957 42.4464 13.6366 46.825 18.1743 49.8156C19.4194 50.6363 22.0956 51.9558 23.5532 52.4678C29.3378 54.4996 36.3391 54.5822 42.5329 52.6918C51.1333 50.0667 55.6382 42.93 56.1616 31.101C56.1978 30.2849 56.2711 28.1086 56.3246 26.2648C56.4102 23.3161 56.454 22.7735 56.6885 21.7583C57.3323 18.9715 58.6517 16.7172 60.3968 15.4221C60.966 14.9998 61.0053 14.946 60.7789 14.9004C60.64 14.8724 60.0843 14.7671 59.544 14.6664C59.0037 14.5657 57.8003 14.256 56.8697 13.978C55.3321 13.5186 55.0734 13.4724 54.0317 13.4711C53.0292 13.4698 52.7966 13.507 52.1761 13.7685C49.656 14.8302 47.6948 17.6519 46.0116 22.6376C45.3069 24.7251 44.9199 25.5963 44.2513 26.5997C43.3002 28.0272 42.3986 28.8799 41.0423 29.6348C38.2952 31.1637 34.7162 30.8024 32.6701 28.7897C31.9385 28.0699 31.5637 27.3989 31.1689 26.1026C30.622 24.3068 30.4489 23.018 30.349 19.9997C30.2541 17.131 30.1423 16.5067 29.5809 15.7128C28.6829 14.4429 26.4902 14.7726 25.5941 16.3124C25.1637 17.0519 25.1088 17.6963 25.3387 19.3109C25.806 22.5925 25.5323 24.2646 24.4044 25.0201C24.0283 25.2722 23.8144 25.3254 23.021 25.3645C21.7828 25.4256 21.0024 25.203 20.3587 24.6055C19.7453 24.0362 19.4715 23.4307 19.314 22.2946C19.1624 21.2006 19.3382 19.5796 20.1534 14.5589C20.7009 11.1863 20.7308 10.3115 20.3334 9.30116C19.8616 8.10211 19.0789 7.53275 17.9014 7.5322C16.7245 7.53165 15.6845 8.14893 15.1365 9.17311C14.9451 9.53088 14.9014 9.7971 14.9022 10.602L14.903 11.5912L15.8599 13.4598C16.5564 14.8199 16.896 15.6274 17.108 16.4275C17.382 17.4622 17.3992 17.6716 17.4009 19.9997C17.4025 22.077 17.3632 22.7038 17.1556 23.9164C16.3355 28.7041 15.186 31.1568 13.9129 30.8349C12.8793 30.5738 11.6178 28.2692 11.084 25.6669C10.864 24.5942 10.8713 23.9846 11.1421 20.824C11.4095 17.7023 11.4661 13.1713 11.2593 11.4264C10.9418 8.745 10.2767 6.28412 9.36167 4.40425C8.37589 2.3793 7.06091 0.774657 5.96685 0.261686C5.30711 -0.0476131 4.47273 -0.0874021 3.98415 0.16727ZM54.5124 15.8284C55.7268 16.902 54.8102 18.8248 53.2268 18.5257C51.9547 18.2854 51.5674 16.7136 52.5632 15.8332C52.892 15.5424 53.0336 15.4932 53.5405 15.4932C54.0457 15.4932 54.1893 15.5428 54.5124 15.8284ZM96.0018 19.067C95.1375 19.5347 94.7465 20.1847 94.7465 21.1538C94.7465 21.8999 94.9317 22.3621 95.4157 22.8233C95.8759 23.2618 96.2524 23.407 96.9296 23.407C97.5839 23.407 97.982 23.2624 98.3859 22.8779C99.4251 21.8887 99.3405 20.2037 98.206 19.2948C97.8538 19.0127 97.6793 18.9565 97.0599 18.9259C96.5397 18.9002 96.2349 18.9409 96.0018 19.067ZM121.923 19.1479C120.323 19.963 120.355 22.4591 121.976 23.2004C122.677 23.5209 123.524 23.4749 124.137 23.083C124.815 22.6505 125.135 22.0326 125.141 21.1452C125.145 20.5893 125.091 20.3876 124.819 19.9446C124.205 18.9476 122.979 18.6101 121.923 19.1479ZM174.266 19.0832C173.425 19.5294 173.01 20.2237 173.012 21.1769C173.014 21.9318 173.295 22.5043 173.907 23.0001C174.348 23.3576 175.073 23.4955 175.794 23.3592C176.267 23.27 177.023 22.617 177.23 22.1191C177.406 21.6962 177.422 20.6856 177.261 20.2541C177.104 19.8345 176.526 19.2372 176.098 19.0523C175.631 18.8508 174.673 18.8668 174.266 19.0832ZM21.8538 20.0072C20.4162 20.3135 20.3727 22.5009 21.7947 22.9735C22.4909 23.2049 23.3635 22.807 23.6444 22.1302C24.1467 20.9196 23.1451 19.7318 21.8538 20.0072ZM73.1338 32.0903V42.8619L77.4727 42.8618C80.7701 42.8617 82.0269 42.8234 82.7082 42.7027C86.5406 42.0236 89.4006 39.9709 90.6798 36.9815C91.428 35.2328 91.6269 34.2171 91.6269 32.1452C91.6269 30.4443 91.5351 29.7947 91.0909 28.3513C90.1254 25.2147 87.8869 23.0179 84.543 21.9257C82.9071 21.3913 82.0643 21.3195 77.4181 21.3191L73.1338 21.3187V32.0903ZM129.894 23.6818V25.8252H128.912H127.93V27.1948V28.5644L128.885 28.5962L129.84 28.628L129.896 34.0687C129.951 39.3232 129.962 39.5343 130.196 40.2353C130.616 41.4894 131.558 42.3129 133.009 42.6934C133.473 42.8151 134.206 42.8619 135.648 42.8619H137.644V41.4484V40.0349L136.141 39.9805C134.566 39.9234 134.202 39.8257 133.769 39.3444C133.558 39.1102 133.55 38.923 133.521 33.8375L133.49 28.573H135.567H137.644V27.1991V25.8252H135.57H133.496V23.6818V21.5385H131.695H129.894V23.6818ZM162.423 23.6818V25.8252H161.44H160.458V27.1991V28.573H161.434H162.41L162.448 34.0413C162.491 40.0426 162.49 40.0346 163.178 41.1262C163.564 41.739 164.179 42.2129 165.026 42.5506C165.578 42.7705 165.88 42.8006 167.908 42.8386L170.173 42.8811V41.458V40.0349L168.653 39.9798C166.931 39.9175 166.547 39.7823 166.216 39.1211C166.042 38.7747 166.025 38.2776 166.025 33.6566L166.025 28.573H168.099H170.173V27.1991V25.8252H168.099H166.025V23.6818V21.5385H164.224H162.423V23.6818ZM13.0221 24.0621C11.7526 24.8414 12.3808 26.9256 13.8845 26.9239C14.6263 26.9231 15.3896 26.1517 15.3904 25.4021C15.3918 24.1862 14.0533 23.4289 13.0221 24.0621ZM81.0591 24.1712C83.3793 24.3645 84.6267 24.8675 85.8666 26.1097C86.7391 26.9838 87.3639 28.1287 87.7206 29.5073C87.9996 30.5851 88.0058 33.6953 87.7311 34.7282C87.1935 36.7501 85.9756 38.3549 84.3768 39.1482C82.9007 39.8808 81.5146 40.1061 78.4551 40.1112L76.7359 40.114V32.1636C76.7359 27.7908 76.7687 24.1801 76.8087 24.1398C76.9145 24.0332 79.6462 24.0533 81.0591 24.1712ZM145.77 25.711C145.347 25.8228 144.813 25.9928 144.585 26.0887C143.825 26.4085 142.686 27.2539 141.99 28.0148C140.321 29.8375 139.744 31.6606 139.857 34.7492C139.925 36.6029 140.1 37.3744 140.762 38.7401C141.759 40.797 143.657 42.3631 145.905 42.9842C146.632 43.1849 146.948 43.2109 148.067 43.1616C149.509 43.0982 150.098 42.9374 151.385 42.2566C152.157 41.848 153.581 40.7423 153.581 40.5513C153.581 40.4921 153.63 40.4438 153.69 40.4438C153.756 40.4438 153.799 40.92 153.799 41.6528V42.8619H155.491H157.183V34.3435V25.8252H155.491H153.799V26.9793C153.799 28.0271 153.705 28.3962 153.544 27.9743C153.438 27.6977 151.807 26.4624 151.115 26.1353C150.75 25.9625 150.111 25.7488 149.696 25.6602C148.632 25.4332 146.729 25.4577 145.77 25.711ZM187.185 25.655C184.063 26.3092 181.597 28.6461 180.799 31.7056C180.516 32.7931 180.511 35.8965 180.792 36.9265C181.522 39.6081 183.351 41.6416 185.945 42.656C187.417 43.2312 189.545 43.3627 191.086 42.9736C192.114 42.7138 194.153 41.7197 194.842 41.1425C195.671 40.447 196.468 39.4417 196.92 38.5203C197.619 37.0935 197.734 36.4946 197.732 34.2886C197.73 32.5964 197.699 32.2593 197.474 31.4858C197.05 30.0317 196.494 29.0635 195.503 28.0508C194.53 27.0567 193.127 26.206 191.786 25.798C190.852 25.5138 188.245 25.4328 187.185 25.655ZM208.07 25.718C207.068 25.9823 206.316 26.3906 205.573 27.0727L204.993 27.6059V26.7155V25.8252H203.192H201.391V34.3435V42.8619H203.187H204.984L205.016 37.2837C205.047 31.816 205.052 31.6927 205.292 31.0541C205.957 29.2781 207.702 28.344 209.888 28.593C210.659 28.6808 211.759 29.1584 212.22 29.6059C212.643 30.0155 213.029 30.7232 213.248 31.4858C213.413 32.0603 213.443 32.8356 213.48 37.5036L213.523 42.8619H215.262H217L216.999 37.9432C216.998 30.7693 216.872 29.8449 215.663 28.1082C214.226 26.0432 210.857 24.9828 208.07 25.718ZM95.0739 34.3435V42.8619H96.875H98.6761V34.3435V25.8252H96.875H95.0739V34.3435ZM101.405 25.8807C101.405 25.9112 102.786 29.6084 104.473 34.0968C106.16 38.5851 107.59 42.3934 107.649 42.5596L107.757 42.8619H109.904H112.05L115.214 34.4424C116.955 29.8118 118.395 25.9785 118.415 25.9241C118.436 25.8679 117.652 25.8252 116.601 25.8252H114.75L113.437 29.6447C112.715 31.7455 111.642 34.8666 111.053 36.5807L109.981 39.6972L109.807 39.2736C109.712 39.0406 108.605 35.9196 107.347 32.338L105.062 25.8259L103.233 25.8256C102.228 25.8254 101.405 25.8501 101.405 25.8807ZM121.162 34.3435V42.8619H122.963H124.764V34.3435V25.8252H122.963H121.162V34.3435ZM173.447 34.3435V42.8619H175.248H177.049V34.3435V25.8252H175.248H173.447V34.3435ZM150.712 29.0616C152.514 29.923 153.688 31.9634 153.7 34.253C153.717 37.6245 151.558 40.0216 148.505 40.0206C146.334 40.0198 144.535 38.749 143.774 36.6778C143.273 35.3165 143.274 33.1424 143.775 31.7913C144.794 29.0435 148.02 27.774 150.712 29.0616ZM191.012 28.8992C192.554 29.5114 193.583 30.704 194.03 32.3965C194.255 33.2515 194.251 35.3483 194.022 36.2116C193.64 37.6576 192.654 38.899 191.422 39.4863C190.543 39.9052 189.978 40.028 188.943 40.0249C185.921 40.0158 184.136 37.9108 184.131 34.351C184.127 31.7034 185.052 29.9556 186.94 29.0467C188.19 28.4451 189.728 28.3895 191.012 28.8992ZM59.3803 45.1691C57.4037 45.4326 55.5951 46.2411 53.8896 47.6237C53.4812 47.9547 52.0871 49.2463 50.7914 50.4938C48.1743 53.0138 47.1949 53.8457 45.5411 54.9529C43.4231 56.3709 41.4903 56.9667 38.5317 57.1131C36.0922 57.2339 33.5317 56.9037 26.5246 55.5649C21.9851 54.6975 18.9577 54.2934 16.4278 54.2171C12.9496 54.1122 11.0674 54.4374 8.10246 55.6557C5.75432 56.6206 5.4179 56.677 3.45181 56.4361C1.50066 56.197 0.756116 56.2627 0.308908 56.7129C0.0539225 56.9696 0 57.1179 0 57.5621C0 57.858 0.0779366 58.3646 0.173338 58.6877C0.73625 60.5965 2.48961 60.5756 10.089 58.5691C14.3864 57.4346 15.8793 57.2262 17.9264 57.4754C20.7794 57.8227 22.7901 58.8229 27.3442 62.1606C30.3916 64.394 33.423 66.4956 35.5845 67.8734C37.4711 69.0758 40.7082 71 40.8447 71C40.9807 71 40.9502 70.7997 40.666 69.8244C39.4917 65.7958 36.1175 62.2107 30.9731 59.5257C30.2079 59.1263 29.6205 58.7995 29.6679 58.7995C29.7151 58.7995 32.9937 59.266 36.9535 59.836C45.693 61.0943 47.3205 61.2904 50.2658 61.4402C54.8996 61.6757 59.5596 61.2417 63.9102 60.169C65.8999 59.6786 70.7667 58.0898 71.0004 57.8544C71.2237 57.6297 71.2142 57.5604 70.9234 57.2927C70.3757 56.7884 68.721 56.1795 66.2312 55.5659C62.268 54.5894 60.5649 54.795 55.1232 56.9071C53.2534 57.6328 52.4296 57.8429 51.5018 57.8309C50.1031 57.8128 49.1474 56.7759 49.615 55.7838C49.8636 55.2562 50.2798 55.0332 51.6492 54.6941C54.5942 53.9646 57.2582 52.2881 60.1444 49.348C62.4312 47.0184 63.053 45.7166 62.113 45.227C61.7694 45.0481 60.4909 45.0209 59.3803 45.1691ZM62.382 50.6111C61.8228 50.8101 61.2702 51.4142 61.1738 51.9316C61.0286 52.711 61.4945 53.6338 62.1786 53.9216C63.5433 54.4958 64.9506 53.3742 64.681 51.9272C64.5742 51.3542 63.9605 50.7185 63.3693 50.5687C62.8011 50.4246 62.9204 50.4194 62.382 50.6111ZM4.89003 50.9992C3.40411 51.2565 2.6529 53.1273 3.57493 54.2744C4.15105 54.9912 4.40669 55.1174 5.28321 55.1174C5.98671 55.1174 6.12086 55.0822 6.48522 54.8023C7.24265 54.2206 7.5449 53.3999 7.31633 52.5453C7.19517 52.0923 6.6876 51.4075 6.33011 51.215C5.98857 51.0309 5.30144 50.928 4.89003 50.9992ZM48.8755 62.7086C48.54 62.8919 48.2463 63.3868 48.2469 63.7676C48.2476 64.19 48.6328 64.7011 49.0567 64.8419C49.5938 65.0204 50.1594 64.8257 50.4377 64.3663C50.6905 63.9488 50.7029 63.622 50.4823 63.1924C50.1803 62.6042 49.4622 62.3881 48.8755 62.7086ZM42.5952 63.3128C40.8404 64.21 40.8271 66.7015 42.5721 67.625C43.0765 67.8918 43.2684 67.9349 43.79 67.8982C45.0509 67.8095 46.0634 66.7464 46.0634 65.5114C46.0634 64.7843 45.5967 63.8954 44.9944 63.4748C44.3551 63.0286 43.2915 62.9568 42.5952 63.3128Z" fill="#3D3B00"/>
</svg>
