<svg width="23" height="22" viewBox="0 0 23 22" fill="none" xmlns="http://www.w3.org/2000/svg">
<path fill-rule="evenodd" clip-rule="evenodd" d="M13.7174 0.0538995C13.9145 -0.0134432 14.1279 -0.0177898 14.3276 0.0414672C14.5273 0.100724 14.7035 0.220624 14.8314 0.384408L21.8314 9.34397C21.968 9.51872 22.0421 9.7338 22.0421 9.95521C22.0421 10.1766 21.968 10.3917 21.8314 10.5664L14.8314 19.526C14.7034 19.6896 14.5273 19.8094 14.3277 19.8685C14.128 19.9277 13.9148 19.9233 13.7178 19.856C13.5208 19.7887 13.3498 19.6618 13.2287 19.493C13.1076 19.3243 13.0425 19.1221 13.0424 18.9148V14.9427C7.66341 15.0542 5.07941 16.0706 3.78141 17.1756C2.54741 18.2259 2.32141 19.4613 2.08641 20.7555L2.02541 21.089C1.98054 21.3276 1.84961 21.5417 1.65727 21.6909C1.46493 21.8402 1.22443 21.9143 0.981017 21.8994C0.737605 21.8845 0.508061 21.7815 0.335571 21.6099C0.16308 21.4383 0.0595326 21.2098 0.0444101 20.9675C-0.12759 18.2318 0.13041 14.2677 2.07141 10.9517C3.95541 7.73324 7.34741 5.25841 13.0424 4.99957V0.995649C13.0424 0.788235 13.1074 0.585982 13.2284 0.417143C13.3494 0.248303 13.5204 0.121309 13.7174 0.0538995V0.0538995Z" fill="#1A1B00"/>
</svg>
